#!OML:ASF F:\VICON\USERDATA\INSTALL\Justin_Nancy\Justin_Nancy.ASF
:FULLY-SPECIFIED
:DEGREES
127
root 0.910167 17.1071 14.7683 -4.90624 4.10191 4.99034
lowerback 8.13994 -1.78618 -6.5598
upperback 0.0747371 -2.96038 0.804139
thorax -4.11698 -1.32921 4.8638
lowerneck -21.293 -4.36554 -9.77003
upperneck 16.454 -4.60988 7.73435
head 9.07784 -1.94162 3.62233
rclavicle -1.1045e-014 -3.97569e-015
rhumerus -40.7154 -14.4479 -77.5703
rradius 32.5425
rwrist 5.1947
rhand -16.224 15.8056
rfingers 7.12502
rthumb 9.98409 -13.9376
lclavicle -1.1045e-014 -3.97569e-015
lhumerus -23.0835 -0.0846665 85.0329
lradius 55.8731
lwrist 17.5291
lhand -22.9253 25.3165
lfingers 7.12502
lthumb 3.51522 55.2673
rfemur -25.9193 5.47667 12.5406
rtibia 20.8516
rfoot -9.76887 -16.9974
rtoes -1.07268
lfemur -0.445718 -4.74453 -26.6069
ltibia 34.385
lfoot -18.5668 -0.321818
ltoes -6.96835
128
root 0.88109 17.0928 14.9676 -4.88163 4.56346 5.22587
lowerback 8.24581 -1.83855 -6.78651
upperback -0.0506252 -3.06798 0.709536
thorax -4.28813 -1.3684 4.91227
lowerneck -20.8863 -4.4175 -9.91942
upperneck 16.1853 -4.68031 7.81938
head 8.92726 -1.98226 3.66474
rclavicle 1.18028e-015 -9.54166e-015
rhumerus -41.3307 -14.8726 -76.8218
rradius 31.4123
rwrist 5.15447
rhand -16.0023 16.8141
rfingers 7.12502
rthumb 10.1979 -12.9187
lclavicle 1.18028e-015 -9.54166e-015
lhumerus -23.0078 -1.64354 84.909
lradius 55.44
lwrist 16.1434
lhand -20.9994 19.5835
lfingers 7.12502
lthumb 5.37488 49.4953
rfemur -25.517 5.49717 12.0948
rtibia 19.9961
rfoot -9.72651 -16.9146
rtoes -1.37777
lfemur 0.237624 -4.66151 -26.6956
ltibia 34.4008
lfoot -18.7499 -0.609356
ltoes -8.44047
129
root 0.851591 17.0688 15.1587 -4.85736 4.86338 5.46106
lowerback 8.44406 -1.85332 -7.03572
upperback -0.161837 -3.1345 0.638026
thorax -4.49944 -1.38455 4.99801
lowerneck -20.8907 -4.4192 -10.1717
upperneck 16.3379 -4.66897 8.07941
head 8.99287 -1.96577 3.80162
rclavicle 6.07536e-015 1.19271e-014
rhumerus -41.9306 -15.0985 -76.2249
rradius 30.6659
rwrist 5.32862
rhand -15.8738 17.1148
rfingers 7.12502
rthumb 10.3219 -12.6119
lclavicle 6.07536e-015 1.19271e-014
lhumerus -22.8095 -3.0205 84.7806
lradius 54.9387
lwrist 14.6824
lhand -20.8092 16.2521
lfingers 7.12502
lthumb 5.55852 46.1592
rfemur -25.3075 5.3307 11.7849
rtibia 19.6995
rfoot -9.70555 -16.3016
rtoes -1.14402
lfemur 0.895391 -4.55923 -26.7816
ltibia 34.4338
lfoot -18.8687 -0.863705
ltoes -9.46445
130
root 0.821577 17.0431 15.3519 -4.89526 5.04442 5.45698
lowerback 8.45735 -1.87189 -7.01045
upperback -0.0729052 -3.15626 0.594546
thorax -4.41401 -1.40228 4.93814
lowerneck -21.3182 -4.43402 -10.2933
upperneck 16.7275 -4.67727 8.30122
head 9.21235 -1.946 3.90343
rclavicle 3.78933e-015 -1.19271e-014
rhumerus -42.3049 -15.4436 -75.7967
rradius 30.0019
rwrist 5.6538
rhand -16.0103 16.9307
rfingers 7.12502
rthumb 10.1902 -12.8025
lclavicle 3.78933e-015 -1.19271e-014
lhumerus -22.3545 -4.52579 84.5672
lradius 54.55
lwrist 13.4417
lhand -21.3045 16.1002
lfingers 7.12502
lthumb 5.08029 46.0193
rfemur -25.0837 5.1616 11.8294
rtibia 19.7624
rfoot -9.79375 -15.4999
rtoes -0.925836
lfemur 1.57434 -4.46427 -26.6012
ltibia 34.5847
lfoot -19.1062 -1.07479
ltoes -10.6704
131
root 0.79824 17.013 15.5594 -5.00507 5.24167 5.72845
lowerback 8.29992 -1.91797 -7.23774
upperback 0.050554 -3.22543 0.52556
thorax -4.1783 -1.44578 4.98834
lowerneck -21.53 -4.46001 -10.4509
upperneck 16.9634 -4.66897 8.36837
head 9.33656 -1.94175 3.95783
rclavicle 6.55989e-015 -2.3059e-014
rhumerus -42.6548 -15.5907 -75.2739
rradius 29.0085
rwrist 5.7057
rhand -16.2052 16.7406
rfingers 7.12502
rthumb 10.0022 -13.0018
lclavicle 6.55989e-015 -2.3059e-014
lhumerus -22.1532 -5.85382 84.4534
lradius 54.3374
lwrist 12.1803
lhand -21.2247 17.0138
lfingers 7.12502
lthumb 5.1574 46.9311
rfemur -24.7093 4.51724 11.675
rtibia 19.9544
rfoot -9.47414 -14.2263
rtoes -1.43836
lfemur 2.28197 -4.38132 -26.7746
ltibia 34.9547
lfoot -19.4215 -1.27042
ltoes -11.9762
132
root 0.770938 16.972 15.758 -5.01534 5.28779 5.76402
lowerback 8.19723 -1.92264 -7.218
upperback -0.0306517 -3.22665 0.485742
thorax -4.20921 -1.44366 4.93272
lowerneck -21.0162 -4.43781 -10.4975
upperneck 16.878 -4.66877 8.34588
head 9.21696 -1.95822 3.95797
rclavicle 8.18744e-015 -5.56597e-015
rhumerus -43.3008 -15.5728 -74.7959
rradius 28.3173
rwrist 6.00801
rhand -16.0897 16.22
rfingers 7.12502
rthumb 10.1137 -13.517
lclavicle 8.18744e-015 -5.56597e-015
lhumerus -22.2561 -7.27345 84.241
lradius 54.2049
lwrist 11.2996
lhand -20.639 17.4688
lfingers 7.12502
lthumb 5.7229 47.3716
rfemur -24.577 4.133 11.7504
rtibia 20.3267
rfoot -8.8581 -12.9284
rtoes -1.40566
lfemur 2.70775 -4.21073 -26.6187
ltibia 35.5037
lfoot -19.7748 -1.48259
ltoes -13.3468
133
root 0.730019 16.9248 15.9442 -5.03244 5.12206 5.46542
lowerback 8.28158 -1.82224 -7.0211
upperback -0.110502 -3.08053 0.563001
thorax -4.36609 -1.36597 4.89519
lowerneck -20.7321 -4.40349 -10.533
upperneck 16.7764 -4.64444 8.38852
head 9.13126 -1.95033 3.98196
rclavicle -5.2181e-016 -7.95139e-016
rhumerus -43.8632 -15.7145 -74.3048
rradius 27.9491
rwrist 6.88961
rhand -15.2368 14.9006
rfingers 7.12502
rthumb 10.9363 -14.7946
lclavicle -5.2181e-016 -7.95139e-016
lhumerus -22.3573 -8.68013 84.0443
lradius 54.1941
lwrist 10.2817
lhand -19.9493 18.1736
lfingers 7.12502
lthumb 6.38872 48.0573
rfemur -24.6902 4.13217 12.32
rtibia 21.1559
rfoot -7.78182 -12.058
rtoes -2.92826
lfemur 3.07853 -3.96151 -25.9898
ltibia 36.0598
lfoot -19.9295 -1.80718
ltoes -14.126
